<?xml version="1.0" encoding="utf-8"?>
<!-- Generator: Adobe Illustrator 24.0.0, SVG Export Plug-In . SVG Version: 6.00 Build 0)  -->
<svg version="1.1" id="Layer_1" xmlns="http://www.w3.org/2000/svg" xmlns:xlink="http://www.w3.org/1999/xlink" x="0px" y="0px"
	 viewBox="0 0 120 120" style="enable-background:new 0 0 120 120;" xml:space="preserve">
<style type="text/css">
	.st0{fill:#5584C4;}
</style>
<g>
	<path class="st0" d="M50.71,54.04c0.44,0,1.68-1.04,3.71-3.12c1.04-1.09,1.82-2.08,2.34-2.97c0.52-0.89,0.78-1.98,0.78-3.26
		c0-1.68-0.47-3.09-1.41-4.23c-0.94-1.14-1.95-1.71-3.04-1.71c-1.44,0-2.63,0.69-3.6,2.08c-0.96,1.39-1.45,3.22-1.45,5.49
		c0,2.13,0.32,3.94,0.96,5.45C49.65,53.28,50.22,54.04,50.71,54.04z"/>
	<path class="st0" d="M49.6,66.65c-0.45-0.44-0.74-0.67-0.89-0.67c-0.59,0-1.66,1.26-3.19,3.78c-0.59,0.99-1.13,2.18-1.59,3.56
		c-0.47,1.39-0.7,2.28-0.7,2.67c0,0.84,0.42,1.26,1.26,1.26c0.69-0.15,1.26-0.3,1.71-0.44c1.43-0.45,2.92-1.01,4.45-1.71
		c1.53-0.69,2.69-1.33,3.49-1.93c0.15-0.1,0.35-0.27,0.59-0.52c0-0.25-1.19-1.68-3.56-4.3C50.32,67.41,49.8,66.84,49.6,66.65z"/>
	<path class="st0" d="M12.14,78.37c0.25,0,1.06-0.32,2.45-0.96c-0.35-0.69-0.7-1.37-1.08-2.04s-0.56-1.08-0.56-1.22
		c0-0.35,0.32-0.69,0.96-1.04c0.64-0.35,1.19-0.52,1.63-0.52c0.79,0,1.56,0.22,2.3,0.67c1.29-3.31,2.26-6.53,2.93-9.64
		c0.67-3.12,1-6.16,1-9.12c0-4.4-0.67-8.25-2-11.53c-1.33-3.29-2.7-4.93-4.08-4.93c-0.54,0-1.06,0.35-1.56,1.04
		c-0.74,1.19-1.41,2.25-2,3.19c-1.78,2.82-3.03,5.79-3.75,8.9c-0.72,3.12-1.08,6.53-1.08,10.24c0,3.81,0.42,7.25,1.26,10.31
		C9.81,76.14,11,78.37,12.14,78.37z"/>
	<path class="st0" d="M59.29,0C34.16,0,12.65,15.46,3.72,37.37c0.25-0.48,0.51-0.94,0.78-1.36c2.18-3.41,4.8-5.12,7.86-5.12
		c0.69,0,1.99,0.4,3.89,1.19c1.9,0.79,3.23,1.26,3.97,1.41c2.13,0.4,4.03,1.84,5.71,4.34c1.68,2.5,2.98,5.33,3.89,8.49
		c0.91,3.17,1.37,6.48,1.37,9.94c0,4.15-0.51,8.16-1.52,12.02c-1.01,3.86-2.46,7.32-4.34,10.39c5.34,5.33,8.01,8.64,8.01,9.92
		c0,0.2-0.29,0.6-0.85,1.22c-0.57,0.62-1.05,0.93-1.45,0.93c-0.25,0-0.68-0.06-1.3-0.18c-0.62-0.12-1.05-0.18-1.3-0.18h-1.48
		c-0.45,0-0.8-0.09-1.08-0.26c-0.27-0.17-0.73-0.58-1.37-1.22l-4.38-4.67c-0.79,0.42-1.3,0.67-1.52,0.73
		c-0.22,0.06-0.56,0.09-1,0.09h-2.3c-0.44-0.15-0.82-0.27-1.11-0.37c-1.29-0.4-2.4-0.69-3.34-0.89c-1.68-0.35-3.31-1.38-4.9-3.12
		c-2.37-2.55-4.12-5.12-5.27-7.72C6.63,99.86,30.6,120,59.29,120c33.14,0,60-26.86,60-60S92.43,0,59.29,0z M71.67,69.87
		c-0.57,0.87-1.4,1.87-2.48,3c-0.25,0.3-0.7,0.64-1.37,1.04c-0.67,0.4-1,0.77-1,1.11c0,0.4,0.79,1.66,2.37,3.78
		c1.58,2.13,2.37,3.69,2.37,4.67c0,0.4-0.3,0.67-0.89,0.82c-0.59,0.15-1.06,0.33-1.41,0.56c-0.35,0.22-0.62,0.33-0.82,0.33
		c-1.14,0-1.82-0.04-2.04-0.11s-0.58-0.33-1.08-0.78c-0.5-0.45-1.71-1.71-3.63-3.78c-0.94-0.99-1.66-1.48-2.15-1.48
		c-0.64,0-1.78,0.52-3.41,1.56c-1.93,1.24-3.49,2.03-4.67,2.37c-2.72,0.79-5.12,1.19-7.2,1.19c-2.52,0-4.74-0.83-6.64-2.49
		c-1.9-1.66-2.86-3.7-2.86-6.12c0-1.48,0.44-3.36,1.33-5.64c0.89-2.27,2.1-4.4,3.63-6.38c0.69-0.84,1.61-1.75,2.74-2.74
		c0.89-0.74,1.34-1.24,1.34-1.48c-1.09-1.58-2.05-3.36-2.89-5.34c-0.84-1.98-1.26-4.05-1.26-6.23c0-4.15,1.24-7.91,3.71-11.28
		c2.47-3.36,5.14-5.04,8.01-5.04c1.58,0,3.21,0.51,4.9,1.52c1.68,1.01,3.54,2.53,5.56,4.56c1.09,1.14,1.78,1.9,2.08,2.3
		c0.94,1.29,1.41,2.92,1.41,4.9c0,3.91-1.31,7.44-3.93,10.61c-0.79,0.94-2,2.03-3.63,3.26c-1.29,0.99-1.93,1.68-1.93,2.08
		c0,0.25,0.31,0.77,0.93,1.56c0.62,0.79,1.54,1.98,2.78,3.56c0.74,0.99,1.29,1.63,1.63,1.93c0.54,0.5,1.09,0.74,1.63,0.74
		c0.3,0,1.5-0.33,3.6-1c2.1-0.67,3.52-1,4.27-1c0.4,0.25,0.69,0.42,0.89,0.52c0.64,0.45,0.96,0.82,0.96,1.11
		C72.52,68.4,72.24,69.01,71.67,69.87z M105.34,83.74c-0.37,0.32-0.75,0.48-1.15,0.48c-0.59-0.2-1.04-0.3-1.33-0.3
		c-0.25,0-0.57,0.1-0.96,0.3c-0.4,0.2-0.69,0.3-0.89,0.3c-0.84,0-1.51-0.29-2-0.85c-0.5-0.57-1.11-2.01-1.85-4.34
		c-0.54-1.73-1.03-3.78-1.45-6.16c-0.42-2.37-0.93-3.56-1.52-3.56c-0.64,0.25-1.61,0.47-2.89,0.67c-1.29,0.2-2.55,0.3-3.78,0.3
		c-2.13,0-3.35,0.31-3.67,0.93c-0.32,0.62-0.57,1.53-0.74,2.74c-0.17,1.21-0.33,2.07-0.48,2.56c-0.44,1.33-0.74,2.32-0.89,2.97
		c-0.59,2.03-0.89,3.68-0.89,4.97c0,0.64-0.17,1.19-0.51,1.63c-0.48,0.64-1.16,0.96-2.04,0.96c-1.36,0-2.47-0.21-3.34-0.63
		c-0.87-0.42-1.31-0.88-1.31-1.37v-1.11c0-1.78,0.27-4.15,0.82-7.12c0.54-2.97,1.41-6.92,2.6-11.87c0.45-1.88,1.73-7.05,3.86-15.5
		c3.16-12.61,5.09-18.92,5.79-18.92c2.42,0,4.82,0.37,7.2,1.11c2.37,0.74,3.56,1.31,3.56,1.71l-0.07,0.74
		c0.1,0.69,0.23,1.53,0.41,2.52c0.17,0.99,0.51,2.57,1,4.75c0.2,0.84,0.4,2.23,0.59,4.15c0.05,0.69,0.15,1.38,0.3,2.08
		c0.54,1.83,0.96,3.51,1.26,5.04c0.3,1.53,0.44,2.94,0.44,4.23c0.2,1.53,0.37,2.87,0.52,4.01c0.4,2.42,1.06,6.21,2,11.35
		c0.25,1.29,0.49,2.63,0.74,4.04c0.25,1.41,0.42,2.61,0.52,3.6c0.1,0.99,0.25,1.73,0.45,2.23c0.05,0.15,0.15,0.35,0.3,0.59
		C105.9,83.16,105.72,83.42,105.34,83.74z"/>
	<path class="st0" d="M91.66,50.1c-0.1-0.49-0.25-1.56-0.45-3.19c-0.2-1.63-0.45-2.45-0.74-2.45c-0.1,0-0.64,2.15-1.63,6.45
		c-0.64,2.62-1.2,4.75-1.67,6.38c-0.47,1.63-0.9,3.17-1.3,4.6c0,0.3,0.32,0.44,0.96,0.44c3.51,0,5.57-0.06,6.19-0.19
		c0.62-0.12,0.93-0.56,0.93-1.3c-0.3-1.09-0.66-2.55-1.08-4.38C92.46,54.65,92.05,52.53,91.66,50.1z"/>
</g>
</svg>
