<svg xmlns="http://www.w3.org/2000/svg" viewBox="0 0 377.72 118.72"><defs><style>.cls-1{fill:#fff;}</style></defs><title>Asset 7</title><g id="Layer_2" data-name="Layer 2"><g id="Layer_1-2" data-name="Layer 1"><polygon class="cls-1" points="287.05 65.07 274.88 65.07 272 85.1 283.6 85 287.05 65.07"/><path class="cls-1" d="M269.34,106.55H269c-.57-3-1.1-6.06-1.63-9H257.18l4.38,21.22h16.2l3.68-21.22h-11C270,100.49,269.68,103.51,269.34,106.55Z"/><polygon class="cls-1" points="234.99 65.07 221.89 65.07 225.59 85.53 237.81 85.42 234.99 65.07"/><path class="cls-1" d="M254.36,82.93h.29c.1.76.21,1.55.32,2.33l9.92-.09-4.55-20.1H249.47l-4.54,20.28,9-.08C254.09,84.48,254.23,83.7,254.36,82.93Z"/><path class="cls-1" d="M240.83,106.55h-.29c-.38-3-.77-6.06-1.15-9H227.76l3.85,21.22h15.91l4.26-21.22h-9.31Q241.63,102,240.83,106.55Z"/><polygon class="cls-1" points="305.92 75.8 327.02 75.8 327.02 65.07 293.03 65.07 293.03 84.91 305.92 84.79 305.92 75.8"/><polygon class="cls-1" points="293.03 118.72 327.81 118.72 327.81 107.92 305.92 107.92 305.92 97.5 293.03 97.5 293.03 118.72"/><path class="cls-1" d="M349.42,74.94h5.33c5.4,0,7.92,1.58,7.92,5.4a5.54,5.54,0,0,1-1.41,3.93l12.67-.11a14.23,14.23,0,0,0,1.27-5.77c0-10.29-8.86-13.32-19.95-13.32H336.53V84.5l12.89-.12Z"/><path class="cls-1" d="M363.18,97.5a5.23,5.23,0,0,1,2,4.51c0,4.61-3.17,6.84-9.36,6.84h-6.41V97.5H336.53v21.22h20.24c11.66,0,21-4.9,21-15.84a14.55,14.55,0,0,0-1-5.38Z"/><rect class="cls-1" y="42.5" width="12.89" height="14.82"/><rect class="cls-1" x="30.53" y="42.5" width="12.82" height="14.82"/><polygon class="cls-1" points="43.35 3.67 30.53 3.67 30.53 24.12 12.89 24.12 12.89 3.67 0 3.67 0 30.52 43.35 30.12 43.35 3.67"/><path class="cls-1" d="M72.45,13.32h.29c1.37,5.23,2.68,11.31,4.05,16.49l11.86-.11-8.07-26H65.17L57,30l11.5-.11C69.83,24.7,71.2,18.71,72.45,13.32Z"/><polygon class="cls-1" points="48.54 57.32 61.65 57.32 64.74 45 80.58 45 83.68 57.32 97.22 57.32 92.62 42.5 53.13 42.5 48.54 57.32"/><path class="cls-1" d="M113,19.73h.36l4.34,9.7,11.11-.1L115.48,3.67h-13.1v25.9L114,29.46C113.66,26.06,113.25,22.72,113,19.73Z"/><rect class="cls-1" x="102.38" y="42.5" width="12.24" height="14.82"/><polygon class="cls-1" points="131.83 57.32 144.93 57.32 144.93 42.5 124.23 42.5 131.83 57.32"/><path class="cls-1" d="M144.93,3.67H132.69V21.46c0,2.48.16,5.15.4,7.83l11.84-.11Z"/><path class="cls-1" d="M198.2,3.67H186V21.46c0,2.32.14,4.82.35,7.33l11.89-.11Z"/><rect class="cls-1" x="155.64" y="42.5" width="12.24" height="14.82"/><polygon class="cls-1" points="185.09 57.32 198.2 57.32 198.2 42.5 177.5 42.5 185.09 57.32"/><path class="cls-1" d="M166.23,19.73h.36l4.12,9.21,11.07-.11-13-25.16H155.64V29.08L167.22,29C166.89,25.74,166.5,22.58,166.23,19.73Z"/><rect class="cls-1" x="219.52" y="42.5" width="12.82" height="14.82"/><path class="cls-1" d="M248.54,3.67H235.07l-4.46,12c-1.51,4-3,7.77-4.47,11.95h-.28c-1.52-4.18-2.88-7.92-4.32-11.95l-4.47-12H203.39l11.55,24.86L237,28.32Z"/><path class="cls-1" d="M268.17,11.09c0-7-2.74-11.09-8.07-11.09-3.81,0-6.62,2.66-6.62,6.91,0,3.89,3,6.34,6.62,6.34a3.1,3.1,0,0,0,.8-.07c0,4.82-2.52,8-7.64,10.44l2.3,4.53,2.44,0C264.83,24.16,268.17,18.35,268.17,11.09Z"/><path class="cls-1" d="M303.24,26.86l-6.7-2.67c-4.75-1.87-8.06-3-8.06-6,0-2.81,2.38-4.4,6.34-4.4,4.17,0,7.48,1.44,11,4.11l6.41-8.07a24.92,24.92,0,0,0-17.42-7c-11.38,0-19.45,7.2-19.45,16.2a14.32,14.32,0,0,0,3,9l26.7-.25C304.49,27.4,303.88,27.12,303.24,26.86Z"/><path class="cls-1" d="M300.65,42.5v.06c0,2.88-2.23,4.68-7,4.68-3.91,0-8.42-1.91-12-4.74h-1.54l-6.73,8.12a30,30,0,0,0,20,7.71c12.49,0,19.88-7.3,20.4-15.83Z"/></g></g></svg>